name C:\Users\u0150099\Documents\master_thesis\3dpredictsim\Results\debug\Fal_s1_mtj_sc_cspx10_oy_o45z10_MTc2_MTPm_k1_d01_MTJm_nl_MG_exp_v2_table_d01_PF_Natali2010_ls146_FDB_ig21.mot
datacolumns 130
datarows 4
range 1.57622414 1.60774863
endheader
time	pelvis_tilt	pelvis_list	pelvis_rotation	pelvis_tx	pelvis_ty	pelvis_tz	hip_flexion_l	hip_adduction_l	hip_rotation_l	hip_flexion_r	hip_adduction_r	hip_rotation_r	knee_angle_l	knee_angle_r	ankle_angle_l	ankle_angle_r	subtalar_angle_l	subtalar_angle_r	mtj_angle_l	mtj_angle_r	mtp_angle_l	mtp_angle_r	lumbar_extension	lumbar_bending	lumbar_rotation	arm_flex_l	arm_add_l	arm_rot_l	arm_flex_r	arm_add_r	arm_rot_r	elbow_flex_l	elbow_flex_r	pro_sup_l	pro_sup_r	glut_med1_l/activation	glut_med2_l/activation	glut_med3_l/activation	glut_min1_l/activation	glut_min2_l/activation	glut_min3_l/activation	semimem_l/activation	semiten_l/activation	bifemlh_l/activation	bifemsh_l/activation	sar_l/activation	add_long_l/activation	add_brev_l/activation	add_mag1_l/activation	add_mag2_l/activation	add_mag3_l/activation	tfl_l/activation	pect_l/activation	grac_l/activation	glut_max1_l/activation	glut_max2_l/activation	glut_max3_l/activation	iliacus_l/activation	psoas_l/activation	quad_fem_l/activation	gem_l/activation	peri_l/activation	rect_fem_l/activation	vas_med_l/activation	vas_int_l/activation	vas_lat_l/activation	med_gas_l/activation	lat_gas_l/activation	soleus_l/activation	tib_post_l/activation	flex_dig_l/activation	flex_hal_l/activation	tib_ant_l/activation	per_brev_l/activation	per_long_l/activation	per_tert_l/activation	ext_dig_l/activation	ext_hal_l/activation	FDB_l/activation	ercspn_l/activation	intobl_l/activation	extobl_l/activation	glut_med1_r/activation	glut_med2_r/activation	glut_med3_r/activation	glut_min1_r/activation	glut_min2_r/activation	glut_min3_r/activation	semimem_r/activation	semiten_r/activation	bifemlh_r/activation	bifemsh_r/activation	sar_r/activation	add_long_r/activation	add_brev_r/activation	add_mag1_r/activation	add_mag2_r/activation	add_mag3_r/activation	tfl_r/activation	pect_r/activation	grac_r/activation	glut_max1_r/activation	glut_max2_r/activation	glut_max3_r/activation	iliacus_r/activation	psoas_r/activation	quad_fem_r/activation	gem_r/activation	peri_r/activation	rect_fem_r/activation	vas_med_r/activation	vas_int_r/activation	vas_lat_r/activation	med_gas_r/activation	lat_gas_r/activation	soleus_r/activation	tib_post_r/activation	flex_dig_r/activation	flex_hal_r/activation	tib_ant_r/activation	per_brev_r/activation	per_long_r/activation	per_tert_r/activation	ext_dig_r/activation	ext_hal_r/activation	FDB_r/activation	ercspn_r/activation	intobl_r/activation	extobl_r/activation	
          1.57622414	         -2.92539429	          1.45940468	         -3.13756021	          2.09637811	          0.91238675	          0.00389000	         29.45324906	          3.53072268	         -3.40931788	        -13.57574035	          2.68957339	          6.35094500	        -14.81875257	        -16.52638815	          9.93710788	          0.91498460	         -5.09919801	         -6.60772463	          2.44320262	         -2.59946125	         -4.07103119	         29.08985630	         -4.46132676	         -0.89618389	          1.38323672	         -2.41839748	        -13.50210566	          8.60507876	          3.79631068	        -13.81845186	         19.34123431	         23.98517733	         34.88747114	         86.51662706	         86.51662706	          0.06904693	          0.05000020	          0.05875678	          0.05000013	          0.05000018	          0.05000088	          0.30875991	          0.06904737	          0.36879611	          0.06904714	          0.05875570	          0.08633733	          0.14008847	          0.12827752	          0.18916431	          0.22429766	          0.05000158	          0.05027424	          0.11977124	          0.05875704	          0.10101798	          0.20610109	          0.05084431	          0.05000125	          0.15376363	          0.05000120	          0.05000037	          0.05000011	          0.05000062	          0.05000060	          0.05000051	          0.05885747	          0.05875704	          0.05163017	          0.05590737	          0.05748674	          0.05009941	          0.34474271	          0.21270269	          0.17359834	          0.28740553	          0.59505396	          0.33832231	          0.05000429	          0.05923989	          0.07076727	          0.09104927	          0.27654640	          0.05000010	          0.05000003	          0.53164292	          0.12853451	          0.05000017	          0.05000121	          0.05000016	          0.05000012	          0.05000044	          0.05876697	          0.11622321	          0.05000043	          0.05000048	          0.05000133	          0.05000049	          0.37790664	          0.06904748	          0.05000032	          0.05000089	          0.05000052	          0.05000044	          0.43562185	          0.75739137	          0.05000004	          0.05000015	          0.05000005	          0.45689308	          0.24714900	          0.25986448	          0.21419617	          0.34924069	          0.50891256	          0.16814579	          0.41546824	          0.38860116	          0.53390498	          0.05000000	          0.19189453	          0.33855565	          0.05000015	          0.05000005	          0.08113982	          0.69620182	          0.05000003	          0.05000000	          0.05000003	
          1.58673230	         -2.92892182	          1.51184389	         -3.39124129	          2.11291797	          0.91108693	          0.00371344	         29.25729930	          3.82905048	         -3.37312232	        -14.22144343	          2.35599493	          6.26442580	        -15.27734182	        -16.90912346	          9.52216429	          0.06712299	         -5.46547644	         -5.61358049	          2.48537819	         -3.69322958	         -3.80518897	         31.68718685	         -4.30007001	         -1.03114310	          1.47292614	         -3.14214041	        -13.46490199	          7.76415384	          3.51789033	        -13.78350130	         19.38734603	         23.44159997	         36.02053158	         86.51662706	         86.51662706	          0.05875679	          0.05875680	          0.05000015	          0.05875688	          0.05875685	          0.05875630	          0.26439268	          0.05875698	          0.32297204	          0.05875683	          0.05000026	          0.14529965	          0.20490550	          0.10916017	          0.16097394	          0.21311817	          0.05000018	          0.05000592	          0.10192169	          0.05000053	          0.08596304	          0.22285418	          0.08013882	          0.06759063	          0.49135787	          0.19016422	          0.10612015	          0.05000005	          0.05000006	          0.05000006	          0.05000005	          0.05008570	          0.05000033	          0.05000001	          0.05875659	          0.05875699	          0.05875704	          0.34465785	          0.27199439	          0.20497194	          0.24457245	          0.65332595	          0.29330024	          0.06465691	          0.05041110	          0.06022050	          0.07747980	          0.23533144	          0.05000008	          0.05000003	          0.45240977	          0.10937850	          0.05000028	          0.05000328	          0.05000026	          0.05000015	          0.05000036	          0.05000906	          0.10937634	          0.17162531	          0.05000093	          0.05000313	          0.05000731	          0.32158658	          0.05875777	          0.05000027	          0.05000073	          0.05000049	          0.05000055	          0.37069912	          0.66908546	          0.05000003	          0.05000017	          0.05000027	          0.41520238	          0.25108537	          0.25110167	          0.21747010	          0.29719176	          0.43306708	          0.14308625	          0.38507869	          0.33068642	          0.45433527	          0.05000000	          0.16329560	          0.28809913	          0.05000007	          0.05000002	          0.06904722	          0.59244364	          0.05000001	          0.05018607	          0.07564265	
          1.59724047	         -2.93017643	          1.57132090	         -3.63068300	          2.12973306	          0.90973999	          0.00350436	         29.03826455	          4.08632862	         -3.34115552	        -14.78214568	          2.00310593	          6.15308484	        -16.38128464	        -17.42124782	          8.77326129	         -0.87386877	         -5.85909367	         -4.53233214	          2.48860459	         -4.88456592	         -3.52745579	         34.41978132	         -4.12460569	         -1.16922334	          1.55571166	         -3.89274066	        -13.44970770	          7.14776383	          3.16063528	        -13.73896742	         19.31658374	         22.91601255	         37.18679787	         86.51662706	         86.51662706	          0.05000002	          0.05000006	          0.11935133	          0.05000010	          0.05000008	          0.05000008	          0.22498902	          0.05000017	          0.27483803	          0.05000006	          0.06904980	          0.12364536	          0.35480757	          0.31034197	          0.19107588	          0.24946674	          0.05875662	          0.07842119	          0.08673195	          0.05000537	          0.13846150	          0.25251627	          0.06904735	          0.06904736	          0.61590947	          0.16182325	          0.09030468	          0.06904726	          0.12083132	          0.12686898	          0.10723456	          0.06904725	          0.06904741	          0.06904723	          0.05000002	          0.05000020	          0.05000029	          0.44501873	          0.25469770	          0.17442418	          0.55576948	          0.65535621	          0.50075723	          0.05502080	          0.05000000	          0.05124556	          0.06593263	          0.20025892	          0.05875684	          0.05875682	          0.38498508	          0.09307740	          0.05875684	          0.05000202	          0.05000064	          0.05875653	          0.05000006	          0.05000039	          0.23298196	          0.25330786	          0.06702367	          0.05875887	          0.10664354	          0.27365931	          0.05000129	          0.05875674	          0.05875741	          0.05875719	          0.05875735	          0.31545212	          0.59654273	          0.05875690	          0.05875691	          0.05875671	          0.35332287	          0.21366523	          0.21367903	          0.18505971	          0.25289989	          0.36852509	          0.12176144	          0.32768865	          0.28140273	          0.38662365	          0.05000004	          0.13895891	          0.24516238	          0.05000002	          0.05000002	          0.05875682	          0.50414903	          0.06868628	          0.06904722	          0.06860748	
          1.60774863	         -2.92964804	          1.65956652	         -3.85976771	          2.14675633	          0.90837976	          0.00329375	         28.70201608	          4.27957445	         -3.22393563	        -15.22559825	          1.62155311	          6.03094912	        -17.61136393	        -18.11143509	          8.03076244	         -1.92806506	         -6.24017183	         -3.42513287	          2.58926614	         -6.12832807	         -3.25636873	         37.17265182	         -3.93644912	         -1.33397211	          1.63344493	         -4.65396092	        -13.45957074	          6.74054469	          2.73764211	        -13.68887284	         19.18626325	         22.39180596	         38.38509254	         86.51662706	         86.51662706	          0.39234452	          0.38910386	          0.40522929	          0.44135511	          0.44120451	          0.36053731	          0.19145812	          0.16025512	          0.23387786	          0.09535149	          0.05875915	          0.10521797	          0.30192901	          0.26409036	          0.16259920	          0.29771871	          0.05000033	          0.06673426	          0.21754172	          0.24527363	          0.24230177	          0.31073072	          0.05875696	          0.05875695	          0.52411764	          0.13770605	          0.12884550	          0.05875683	          0.10282328	          0.10796111	          0.09125290	          0.05875682	          0.05875695	          0.05875680	          0.07543294	          0.05875678	          0.05875676	          0.48627249	          0.21673907	          0.20510787	          0.50630791	          0.79733314	          0.70642172	          0.44430761	          0.08579948	          0.09856102	          0.05610640	          0.20583886	          0.05000007	          0.05000003	          0.34519078	          0.07920577	          0.05000014	          0.05001219	          0.05000115	          0.05000014	          0.05875703	          0.05875705	          0.25203606	          0.22655856	          0.05703497	          0.05000235	          0.09075013	          0.33085760	          0.06904540	          0.05000061	          0.05000084	          0.05000051	          0.05000061	          0.26843904	          0.70418976	          0.05000010	          0.05000015	          0.05000003	          0.30066553	          0.18182173	          0.18183347	          0.15747941	          0.21520904	          0.31360209	          0.10361477	          0.27885170	          0.23946399	          0.32900337	          0.10122291	          0.17075772	          0.20862474	          0.05000040	          0.19073851	          0.05000005	          0.42901336	          0.09467190	          0.05875680	          0.05838261	
